# xmcd
#
# Track frame offsets:
#	150
#	32838
#	51950
#	79528
#	108958
#	129188
#	155395
#	174595
#	203253
#
# Disc length: 2966 seconds
#
# Revision: 0
# Processed by: cddbd v1.5.2PL0 Copyright (c) Steve Scherf et al.
# Submitted via: dBpowerAMP V4.0
#
DISCID=620b9409
DTITLE=Trenora Parker and the LA Cathedral Choir - We've gotta be ready
DYEAR=1900
DGENRE=
TTITLE0=Worship The Lord
TTITLE1=God's been good to me
TTITLE2=Yes Jesus Loves Me
TTITLE3=He Knows and He Cares
TTITLE4=We've Gotta Be Ready
TTITLE5=You're Never Alone
TTITLE6=I Shall Not Be Moved
TTITLE7=Precious Lord
TTITLE8=Rejoice
EXTD=
EXTT0=
EXTT1=
EXTT2=
EXTT3=
EXTT4=
EXTT5=
EXTT6=
EXTT7=
EXTT8=
PLAYORDER=
